HIERARCHY
ROOT Hips
{
 OFFSET 0.000000 0.000000 0.000000
 CHANNELS 6 Xposition Yposition Zposition Yrotation Xrotation Zrotation
 JOINT Chest
 {
  OFFSET 0.000000 10.080317 -0.001081
  CHANNELS 3 Yrotation Xrotation Zrotation
  JOINT Chest2
  {
   OFFSET 0.000000 11.096852 0.001963
   CHANNELS 3 Yrotation Xrotation Zrotation
   JOINT Chest3
   {
    OFFSET 0.000000 10.026525 0.000000
    CHANNELS 3 Yrotation Xrotation Zrotation
    JOINT Chest4
    {
     OFFSET 0.000000 10.026525 0.000000
     CHANNELS 3 Yrotation Xrotation Zrotation
     JOINT Neck
     {
      OFFSET 0.000000 14.108171 0.000000
      CHANNELS 3 Yrotation Xrotation Zrotation
      JOINT Head
      {
       OFFSET 0.000000 9.333493 0.004668
       CHANNELS 3 Yrotation Xrotation Zrotation
       End Site
       {
        OFFSET 0.000000 17.851786 0.002438
       }
      }
     }
     JOINT RightCollar
     {
      OFFSET -3.071622 7.873185 0.000000
      CHANNELS 3 Yrotation Xrotation Zrotation
      JOINT RightShoulder
      {
       OFFSET -14.378659 0.000000 0.000000
       CHANNELS 3 Yrotation Xrotation Zrotation
       JOINT RightElbow
       {
        OFFSET -30.778728 0.000000 0.000000
        CHANNELS 3 Yrotation Xrotation Zrotation
        JOINT RightWrist
        {
         OFFSET -25.164217 0.000000 0.000000
         CHANNELS 3 Yrotation Xrotation Zrotation
         End Site
         {
          OFFSET -18.796788 0.000000 0.000000
         }
        }
       }
      }
     }
     JOINT LeftCollar
     {
      OFFSET 3.071622 7.873185 0.000000
      CHANNELS 3 Yrotation Xrotation Zrotation
      JOINT LeftShoulder
      {
       OFFSET 14.378659 0.000000 0.000000
       CHANNELS 3 Yrotation Xrotation Zrotation
       JOINT LeftElbow
       {
        OFFSET 30.778728 0.000000 0.000000
        CHANNELS 3 Yrotation Xrotation Zrotation
        JOINT LeftWrist
        {
         OFFSET 25.164217 0.000000 0.000000
         CHANNELS 3 Yrotation Xrotation Zrotation
         End Site
         {
          OFFSET 18.796788 0.000000 0.000000
         }
        }
       }
      }
     }
    }
   }
  }
 }
 JOINT RightHip
 {
  OFFSET -8.194923 0.005295 0.000540
  CHANNELS 3 Yrotation Xrotation Zrotation
  JOINT RightKnee
  {
   OFFSET 0.000000 -42.473320 -0.000511
   CHANNELS 3 Yrotation Xrotation Zrotation
   JOINT RightAnkle
   {
    OFFSET 0.000000 -41.474259 -0.000865
    CHANNELS 3 Yrotation Xrotation Zrotation
    JOINT RightToe
    {
     OFFSET 0.000000 -7.354994 16.712725
     CHANNELS 3 Yrotation Xrotation Zrotation
     End Site
     {
      OFFSET 0.000000 -1.553903 6.764158
     }
    }
   }
  }
 }
 JOINT LeftHip
 {
  OFFSET 8.194923 0.005295 0.000540
  CHANNELS 3 Yrotation Xrotation Zrotation
  JOINT LeftKnee
  {
   OFFSET 0.000000 -42.473320 -0.000511
   CHANNELS 3 Yrotation Xrotation Zrotation
   JOINT LeftAnkle
   {
    OFFSET 0.000000 -41.474259 -0.000865
    CHANNELS 3 Yrotation Xrotation Zrotation
    JOINT LeftToe
    {
     OFFSET 0.000000 -7.354994 16.712725
     CHANNELS 3 Yrotation Xrotation Zrotation
     End Site
     {
      OFFSET 0.000000 -1.553903 6.764158
     }
    }
   }
  }
 }
}
MOTION
Frames: 14
Frame Time: 0.016667
0.000000 91.111157 0.000000 0.000000 -5.826342 0.000000 0.000000 11.116423 0.000000 0.000000 -5.290081 0.000000 0.000000 0.000000 0.000000 0.000000 0.000000 0.000000 0.000000 12.665069 0.000000 0.000000 0.575450 0.000000 0.000000 0.000000 0.000000 0.000000 0.000000 0.000000 2.337306 0.000000 0.000000 -2.337306 0.000000 0.000000 0.000000 0.000000 0.000000 0.000000 0.000000 0.000000 -2.337306 0.000000 0.000000 2.337306 0.000000 0.000000 0.000000 8.578828 0.000000 0.000000 1.905768 0.000000 0.000000 -4.658254 0.000000 0.000000 0.000000 0.000000 0.000000 8.578828 0.000000 0.000000 1.905768 0.000000 0.000000 -4.658254 0.000000 0.000000 0.000000 0.000000
-50.406825 92.617949 71.151927 -1.183546 -5.387631 0.145971 -0.618139 2.962738 -0.516198 -0.286283 1.314706 -0.255984 -0.286283 1.314706 -0.255984 -0.214152 0.986150 -0.191364 0.794473 17.759524 0.404164 1.328017 -3.204144 0.476493 -2.266135 0.588336 9.906091 -2.693272 -3.519277 74.642941 12.843085 17.644370 5.518353 -4.616957 1.684828 -7.499741 -3.387051 0.455563 -5.835532 -3.174092 -8.609600 -72.079338 -12.010322 23.258114 -15.848186 3.465706 4.992942 14.149371 -3.951448 6.303449 -4.561394 -1.639201 1.708976 -0.400782 -4.228922 -2.815936 3.492882 -0.121552 0.125419 -0.193516 7.890380 9.060588 3.798701 0.991593 4.042876 -0.267287 4.647633 -7.047583 -2.768276 0.105151 0.078546 -0.079873
-50.371875 92.625720 71.142539 -1.061811 -5.468027 0.155559 -0.629650 2.974229 -0.521751 -0.291794 1.320771 -0.255162 -0.291794 1.320771 -0.255162 -0.218284 0.990701 -0.190732 0.767101 17.728193 0.407400 1.276513 -3.262436 0.491491 -2.221943 0.582842 9.944104 -2.709905 -3.526462 74.567358 12.839448 17.675603 5.545209 -4.656488 1.696725 -7.469270 -3.425424 0.477885 -5.875395 -3.256719 -8.651569 -72.060182 -11.982160 23.260914 -15.819598 3.503219 4.997495 14.133141 -4.001381 6.386658 -4.607843 -1.727932 1.705886 -0.404231 -4.200425 -2.757432 3.543754 -0.117256 0.086416 -0.181895 7.835534 9.081715 3.794150 0.950442 4.118482 -0.298046 4.578984 -7.052398 -2.689832 0.108439 0.051222 -0.083469
-50.340287 92.633721 71.139875 -0.955262 -5.538159 0.163337 -0.635280 2.984150 -0.527180 -0.294014 1.325443 -0.253511 -0.294014 1.325443 -0.253511 -0.219951 0.994205 -0.189487 0.735939 17.702738 0.411222 1.217794 -3.309819 0.508921 -2.207338 0.575562 9.962933 -2.689715 -3.514193 74.532390 12.834858 17.709734 5.548010 -4.688479 1.717305 -7.465024 -3.462514 0.486964 -5.898557 -3.284897 -8.688431 -72.059404 -11.982542 23.295554 -15.827442 3.515118 4.993864 14.124515 -4.052751 6.453739 -4.640402 -1.796474 1.720812 -0.419080 -4.204362 -2.722325 3.584192 -0.113658 0.058167 -0.162624 7.792631 9.109737 3.782599 0.959222 4.168433 -0.304616 4.468273 -7.044473 -2.637978 0.109311 0.025191 -0.075049
-50.315493 92.639213 71.141130 -0.874289 -5.587693 0.161062 -0.635991 2.986199 -0.522717 -0.295283 1.326173 -0.251107 -0.295283 1.326173 -0.251107 -0.220907 0.994752 -0.187681 0.715403 17.678412 0.409036 1.180691 -3.355029 0.511696 -2.158469 0.564170 9.974708 -2.698996 -3.503633 74.506926 12.832659 17.772281 5.538855 -4.710852 1.728476 -7.455270 -3.448712 0.485538 -5.922091 -3.336840 -8.712340 -72.071923 -11.996949 23.301829 -15.835812 3.504381 5.009447 14.119653 -4.126882 6.498480 -4.663537 -1.811829 1.738521 -0.428311 -4.190427 -2.719775 3.607267 -0.114370 0.055320 -0.139184 7.802328 9.145784 3.785981 0.930461 4.170544 -0.310732 4.404329 -7.025392 -2.594234 0.114161 0.010139 -0.066217
-50.283182 92.643969 71.151384 -0.808026 -5.613339 0.169051 -0.634021 2.980988 -0.528039 -0.294018 1.323280 -0.252358 -0.294018 1.323280 -0.252358 -0.219957 0.992582 -0.188623 0.690522 17.658561 0.413843 1.133187 -3.391975 0.528887 -2.127895 0.554930 9.991377 -2.702051 -3.487108 74.500616 12.829599 17.831324 5.534590 -4.718741 1.736591 -7.461486 -3.438666 0.469679 -5.942585 -3.345358 -8.717294 -72.062646 -12.036836 23.288570 -15.864094 3.486843 5.006465 14.108795 -4.211001 6.523742 -4.711128 -1.799483 1.752493 -0.425754 -4.166386 -2.717802 3.633298 -0.115466 0.049614 -0.120773 7.798144 9.213004 3.763392 0.862443 4.084512 -0.307742 4.415361 -6.970685 -2.554654 0.118368 -0.000667 -0.058034
-50.255350 92.645081 71.171129 -0.751675 -5.611577 0.178928 -0.630792 2.960384 -0.534458 -0.292081 1.313486 -0.256030 -0.292081 1.313486 -0.256030 -0.218501 0.985237 -0.191386 0.675582 17.644278 0.421680 1.102976 -3.418571 0.548335 -2.097157 0.546254 10.012932 -2.716784 -3.476466 74.481835 12.840564 17.846350 5.559172 -4.752024 1.748620 -7.471562 -3.413298 0.453984 -5.965887 -3.317185 -8.725093 -72.052929 -12.077691 23.287779 -15.888844 3.471705 4.996419 14.107930 -4.280419 6.555387 -4.763967 -1.810664 1.709598 -0.405242 -4.154436 -2.693180 3.649445 -0.116549 0.046665 -0.107048 7.778275 9.267518 3.733529 0.848541 3.989243 -0.297570 4.390113 -6.924307 -2.532746 0.120189 -0.006080 -0.041897
-50.225977 92.645510 71.203199 -0.687350 -5.588383 0.188807 -0.624382 2.929003 -0.543670 -0.288999 1.299251 -0.261661 -0.288999 1.299251 -0.261661 -0.216184 0.974563 -0.195623 0.657414 17.638341 0.437164 1.064201 -3.429701 0.583040 -2.094617 0.544372 10.025811 -2.732092 -3.474489 74.474669 12.842867 17.882907 5.584185 -4.777591 1.739616 -7.475371 -3.404328 0.442394 -5.976144 -3.265129 -8.716104 -72.052567 -12.136616 23.274392 -15.919914 3.456033 4.999893 14.118239 -4.363155 6.589166 -4.816427 -1.820998 1.637104 -0.383147 -4.128450 -2.660723 3.666113 -0.115313 0.041667 -0.097887 7.772037 9.317583 3.705406 0.809414 3.874021 -0.286160 4.367731 -6.879738 -2.521329 0.119152 -0.008780 -0.023332
-50.197090 92.646064 71.243533 -0.620657 -5.555319 0.197532 -0.624121 2.895486 -0.556947 -0.287750 1.284866 -0.268633 -0.287750 1.284866 -0.268633 -0.215238 0.963777 -0.200861 0.637675 17.627405 0.451119 1.023043 -3.450093 0.615440 -2.091363 0.532006 10.055111 -2.761349 -3.470451 74.467734 12.854524 17.932723 5.594228 -4.779957 1.748766 -7.467529 -3.398780 0.413071 -5.987387 -3.220140 -8.704637 -72.053117 -12.165622 23.278016 -15.926879 3.447470 4.987064 14.132026 -4.432189 6.641242 -4.883562 -1.853550 1.523481 -0.329793 -4.104463 -2.608349 3.679223 -0.113580 0.032742 -0.097931 7.765711 9.342550 3.682866 0.772309 3.797832 -0.287371 4.347642 -6.857949 -2.511879 0.114172 -0.014555 -0.003537
-50.166024 92.642761 71.293137 -0.545760 -5.508419 0.201026 -0.634855 2.860338 -0.569948 -0.291117 1.268100 -0.273732 -0.291117 1.268100 -0.273732 -0.217761 0.951206 -0.204686 0.620893 17.618277 0.462743 0.988125 -3.467103 0.642550 -2.072065 0.526297 10.075999 -2.768273 -3.453356 74.456562 12.887630 17.929100 5.622343 -4.808640 1.764268 -7.471907 -3.388249 0.402376 -5.989299 -3.216540 -8.699512 -72.062845 -12.163352 23.267447 -15.912171 3.444693 4.974869 14.119727 -4.494681 6.679063 -4.933657 -1.871745 1.428330 -0.293565 -4.078746 -2.578557 3.710330 -0.117713 0.028700 -0.106344 7.743547 9.340128 3.665506 0.727931 3.761591 -0.295304 4.339828 -6.868945 -2.502672 0.116265 -0.014787 0.012905
-50.133129 92.638571 71.345497 -0.471542 -5.456939 0.198263 -0.647158 2.820851 -0.578938 -0.295756 1.250840 -0.276756 -0.295756 1.250840 -0.276756 -0.221242 0.938264 -0.206953 0.608208 17.604543 0.469330 0.962469 -3.492638 0.658961 -2.067150 0.521555 10.088493 -2.810751 -3.450224 74.458134 12.937606 17.974611 5.664978 -4.812948 1.767109 -7.456098 -3.389698 0.384254 -6.000901 -3.226790 -8.687411 -72.051309 -12.144161 23.264018 -15.899171 3.454759 4.975539 14.117235 -4.549329 6.705867 -4.982564 -1.874149 1.352230 -0.252875 -4.129111 -2.555722 3.741936 -0.119414 0.025099 -0.109415 7.720640 9.307829 3.657708 0.687376 3.778909 -0.314553 4.317894 -6.909437 -2.477505 0.117609 -0.014956 0.018838
-50.092621 92.631924 71.397036 -0.406759 -5.392309 0.194220 -0.660891 2.803994 -0.586053 -0.301578 1.243907 -0.275880 -0.301578 1.243907 -0.275880 -0.225613 0.933067 -0.206288 0.582157 17.558632 0.466458 0.915336 -3.577886 0.662354 -2.085532 0.463685 10.081384 -2.794681 -3.423177 74.473622 12.970232 17.984562 5.683343 -4.817847 1.777187 -7.425777 -3.410449 0.326533 -6.030025 -3.240658 -8.688682 -72.036164 -12.109296 23.273058 -15.868631 3.472612 4.972066 14.108642 -4.580957 6.691008 -5.005885 -1.870316 1.332506 -0.256293 -4.179115 -2.570284 3.779924 -0.120526 0.028799 -0.097910 7.698835 9.239972 3.643644 0.659217 3.843479 -0.335007 4.297775 -6.974803 -2.447436 0.116334 -0.013719 0.023106
-50.051537 92.626241 71.447153 -0.360422 -5.337508 0.184631 -0.665298 2.787097 -0.587247 -0.303502 1.237158 -0.275770 -0.303502 1.237158 -0.275770 -0.227059 0.928006 -0.206205 0.554858 17.515695 0.454265 0.869068 -3.657578 0.649009 -2.105403 0.439065 10.093093 -2.800429 -3.428057 74.461342 13.028092 18.033448 5.737367 -4.835055 1.793745 -7.408320 -3.446988 0.318188 -6.040651 -3.279438 -8.712422 -72.031263 -12.057725 23.244551 -15.821889 3.489421 4.982133 14.119773 -4.578671 6.648150 -5.004666 -1.888245 1.388726 -0.289634 -4.213231 -2.640736 3.818691 -0.117611 0.048066 -0.077429 7.673481 9.161131 3.643942 0.612254 3.953086 -0.375742 4.314625 -7.060716 -2.403490 0.115585 -0.014115 0.020835
-50.012240 92.622181 71.495732 -0.321091 -5.297484 0.180914 -0.680588 2.781120 -0.580934 -0.310052 1.235861 -0.273942 -0.310052 1.235861 -0.273942 -0.231976 0.927035 -0.204821 0.528559 17.461084 0.430723 0.828511 -3.758915 0.614353 -2.104549 0.414149 10.098245 -2.788175 -3.426921 74.440108 13.091804 18.072497 5.789863 -4.847374 1.789813 -7.406230 -3.454288 0.310963 -6.078091 -3.311681 -8.725193 -72.024861 -11.997556 23.208281 -15.758107 3.475451 4.971932 14.137728 -4.560208 6.617654 -5.014341 -1.883994 1.447259 -0.307266 -4.285412 -2.712923 3.831419 -0.116097 0.065900 -0.047353 7.608530 9.094352 3.638558 0.630168 4.071989 -0.428545 4.318797 -7.140074 -2.352066 0.119732 -0.021542 0.019267
